<svg width="512" height="512" viewBox="0 0 512 512" fill="none" xmlns="http://www.w3.org/2000/svg">
<path d="M512 256C512 397.385 397.385 512 256 512C114.615 512 0 397.385 0 256C0 114.615 114.615 0 256 0C397.385 0 512 114.615 512 256Z" fill="black"/>
<path fill-rule="evenodd" clip-rule="evenodd" d="M235.202 250.728C238.27 241.078 246.161 235.831 252.371 239.086C258.216 242.15 260.189 251.647 257.12 260.225C254.161 268.574 247.257 273.59 241.376 271.522C235.165 269.339 232.206 260.106 235.202 250.728Z" fill="#059EE8"/>
<path fill-rule="evenodd" clip-rule="evenodd" d="M264.719 260.225C261.65 251.647 263.623 242.15 269.468 239.086C275.678 235.831 283.569 241.078 286.638 250.728C289.633 260.11 286.674 269.339 280.464 271.522C274.582 273.586 267.678 268.57 264.719 260.225Z" fill="#059EE8"/>
<path d="M211.603 233.036C219.673 233.036 226.215 224.463 226.215 213.888C226.215 203.313 219.673 194.741 211.603 194.741C203.532 194.741 196.99 203.313 196.99 213.888C196.99 224.463 203.532 233.036 211.603 233.036Z" fill="#059EE8"/>
<path fill-rule="evenodd" clip-rule="evenodd" d="M286.89 210.059C286.89 195.238 296.205 183.252 307.676 183.252C319.183 183.252 328.499 195.238 328.499 210.059C328.499 224.879 319.183 236.865 307.676 236.865C296.209 236.865 286.89 224.879 286.89 210.059Z" fill="#059EE8"/>
<path fill-rule="evenodd" clip-rule="evenodd" d="M189.684 210.059C189.684 195.238 198.999 183.252 210.507 183.252C221.978 183.252 231.293 195.238 231.293 210.059C231.293 224.879 221.978 236.865 210.507 236.865C198.996 236.865 189.684 224.879 189.684 210.059Z" fill="#059EE8"/>
<path fill-rule="evenodd" clip-rule="evenodd" d="M167.765 305.528C167.765 320.885 226.032 368.715 261.029 367.03C295.99 365.307 352.321 331.148 350.385 312.345C348.412 293.58 321.233 336.279 264.902 332.871C208.571 329.424 167.765 290.134 167.765 305.528Z" fill="#059EE8"/>
<path fill-rule="evenodd" clip-rule="evenodd" d="M114.974 193.86C97.1469 188.575 94.5897 212.892 94.5897 212.892L104.782 200.217C104.782 200.217 99.9963 218.177 106.499 223.998C113.001 229.819 132.805 199.145 114.974 193.86Z" fill="#059EE8"/>
<path fill-rule="evenodd" clip-rule="evenodd" d="M396.743 193.86C378.915 199.145 398.715 229.819 405.218 223.998C411.72 218.177 406.898 200.217 406.898 200.217L417.09 212.892C417.09 212.892 414.53 188.575 396.743 193.86Z" fill="#059EE8"/>
<path fill-rule="evenodd" clip-rule="evenodd" d="M175.071 219.326C135.727 237.21 105.662 269.684 105.662 319.199C105.662 400.653 186.944 435.999 257.266 435.999C327.589 435.999 408.871 400.653 408.871 319.199C408.871 307.06 407.081 295.954 403.756 285.844C400.797 276.768 390.934 260.646 386.587 252.298C385.929 251.034 385.418 249.77 385.162 248.507C458.553 269.301 447.776 127.839 382.933 167.206C372.413 136.187 350.202 121.75 323.643 111.027C371.901 103.79 303.99 100.266 299.642 99.5771C300.3 96.973 313.159 88.8928 275.094 90.8841C313.89 66.4518 157.719 64.5371 128.129 167.321C63.4686 127.801 57.2583 266.544 119.069 247.702C126.85 244.026 128.129 240.58 128.75 237.439C129.663 232.806 125.791 230.355 121.736 232.231C73.7338 254.519 73.88 152.96 127.983 191.447C131.051 193.591 134.339 192.366 135.508 188.613C148.367 147.216 179.199 127.609 215.511 116.082C211.493 119.452 214.196 126.92 220.187 125.388C233.229 122.056 244.298 120.142 254.819 119.376C244.407 124.201 246.124 134.54 254.38 131.592C304.501 113.478 360.138 133.047 375.335 188.422C376.394 192.328 379.792 193.745 382.897 191.409C434.15 152.463 438.607 254.71 384.285 234.988C380.559 233.61 352.686 226.41 347.133 223.079C345.745 222.313 344.32 221.623 342.859 220.934C352.868 231.925 380.851 266.237 382.495 319.199C384.249 374.957 325.36 419.724 257.266 419.724C189.172 419.724 132.038 374.957 132.038 319.199C132.038 286.227 146.025 247.89 175.071 219.326Z" fill="#059EE8"/>
</svg>
